<svg height="511pt" viewBox="-51 1 511 511.99925" width="511pt" xmlns="http://www.w3.org/2000/svg"><path d="m333.101562 468.667969h-236.707031v-4.859375c0-62.683594 50.8125-113.492188 113.492188-113.492188h9.722656c62.679687 0 113.492187 50.808594 113.492187 113.492188zm0 0" fill="#d9d9d9"/><path d="m214.75 350.316406c-5.679688 0-11.257812.40625-16.722656 1.179688 57.445312 8.125 101.632812 57.484375 101.632812 117.171875h33.445313c-.003907-65.363281-52.992188-118.351563-118.355469-118.351563zm0 0" fill="#c2c2c2"/><path d="m137.882812 343.910156h-126.359374c-6.089844 0-11.023438-4.9375-11.023438-11.023437v-12.789063c0-6.089844 4.933594-11.023437 11.023438-11.023437h126.359374c6.085938 0 11.023438 4.933593 11.023438 11.023437v12.789063c0 6.085937-4.9375 11.023437-11.023438 11.023437zm0 0" fill="#addff5"/><path d="m137.410156 309.070312h-33.445312c6.351562 0 11.496094 5.148438 11.496094 11.496094v11.847656c0 6.347657-5.144532 11.496094-11.496094 11.496094h33.445312c6.347656 0 11.496094-5.148437 11.496094-11.496094v-11.847656c0-6.347656-5.148438-11.496094-11.496094-11.496094zm0 0" fill="#8bb3c4"/><path d="m84.03125 343.910156h-48.71875c.449219 1.617188 1.074219 3.207032 1.941406 4.734375 16.898438 29.820313 41.207032 54.011719 69.84375 70.789063 5.90625-12.898438 14.058594-24.550782 23.964844-34.457032-18.21875-10.144531-34.304688-24.082031-47.03125-41.066406zm0 0" fill="#a8a8a8"/><path d="m236.695312 409.492188c0 12.121093-9.824218 21.945312-21.945312 21.945312s-21.949219-9.824219-21.949219-21.945312c0-12.121094 9.828125-21.945313 21.949219-21.945313s21.945312 9.824219 21.945312 21.945313zm0 0" fill="#6b6b6b"/><path d="m292.570312 134.320312c38.503907 28.523438 60.585938 72.320313 60.585938 120.164063 0 50.542969-25.226562 95.300781-63.746094 122.355469 10.894532 8.867187 20.175782 19.632812 27.351563 31.796875 44.710937-32.871094 74.65625-84.695313 77.894531-143.523438l-.207031-24.300781c-1.851563-25.71875-8.871094-50.984375-20.621094-73.792969-13.367187-25.953125-32.863281-48.875-56.375-66.292969-2.21875-1.640624-4.65625-2.78125-7.175781-3.4375zm0 0" fill="#a8a8a8"/><path d="m394.449219 240.816406c-1.851563-25.71875-8.875-50.988281-20.621094-73.796875-13.367187-25.953125-32.863281-48.875-56.375-66.289062-2.21875-1.644531-4.65625-2.785157-7.175781-3.4375l-5.152344 10.773437c19.375 16.316406 35.535156 36.496094 47.101562 58.953125 11.75 22.808594 18.773438 48.074219 20.625 73.792969l.203126 24.300781c-2.886719 52.460938-27.027344 99.339844-63.925782 132.1875 2.746094 3.628907 5.308594 7.398438 7.628906 11.335938 44.710938-32.871094 74.660157-84.695313 77.898438-143.523438zm0 0" fill="#8c8c8c"/><path d="m401.609375 512c5.488281 0 9.242187-5.535156 7.21875-10.632812l-6.441406-16.226563c-3.949219-9.941406-13.566407-16.472656-24.265625-16.472656h-326.746094c-10.699219 0-20.316406 6.53125-24.265625 16.472656l-6.441406 16.226563c-2.023438 5.097656 1.734375 10.632812 7.21875 10.632812zm0 0" fill="#757575"/><path d="m378.121094 468.667969h-12.234375l17.203125 43.332031h18.519531c5.488281 0 9.246094-5.535156 7.21875-10.632812l-6.441406-16.226563c-3.949219-9.941406-13.566407-16.472656-24.265625-16.472656zm0 0" fill="#616161"/><path d="m372.320312 69.902344-7.570312 7.570312c-4.351562 4.351563-11.410156 4.351563-15.761719 0l-50.875-50.878906c-4.355469-4.351562-4.355469-11.410156 0-15.761719l7.566407-7.566406c4.351562-4.355469 11.410156-4.355469 15.765624 0l50.875 50.875c4.351563 4.351563 4.351563 11.410156 0 15.761719zm0 0" fill="#5b9ed6"/><path d="m371.980469 53.800781-25.097657-25.097656 6.136719 6.136719c4.539063 4.539062 4.539063 11.898437 0 16.4375l-6.894531 6.894531c-4.539062 4.539063-11.898438 4.539063-16.4375 0l-31.238281-31.238281 50.199219 50.203125c4.542968 4.539062 11.902343 4.539062 16.441406 0l6.890625-6.894531c4.539062-4.542969 4.539062-11.898438 0-16.441407zm0 0" fill="#4f89ba"/><path d="m203.617188 265.78125-13.636719 13.636719c-3.347657 3.347656-8.773438 3.347656-12.121094 0l-81.691406-81.691407c-3.347657-3.347656-3.347657-8.777343 0-12.125l13.632812-13.632812c3.347657-3.347656 8.777344-3.347656 12.125 0l81.691407 81.691406c3.347656 3.347656 3.347656 8.773438 0 12.121094zm0 0" fill="#5b9ed6"/><path d="m203.355469 253.398438-18.960938-18.960938c3.492188 3.488281 3.492188 9.148438 0 12.640625l-13.117187 13.117187c-3.488282 3.488282-9.148438 3.488282-12.640625 0l18.964843 18.960938c3.488282 3.492188 9.148438 3.492188 12.640626 0l13.117187-13.117188c3.488281-3.488281 3.488281-9.148437-.003906-12.640624zm0 0" fill="#4f89ba"/><path d="m128.742188 230.300781-16.898438 16.898438c-4.5 4.5-11.796875 4.5-16.300781 0l-8.75-8.75c-4.5-4.5-4.5-11.796875 0-16.300781l16.902343-16.898438zm0 0" fill="#addff5"/><path d="m170.332031 271.890625-16.898437 16.898437c-4.5 4.5-11.796875 4.5-16.300782 0l-8.75-8.75c-4.5-4.5-4.5-11.796874 0-16.300781l16.902344-16.898437zm0 0" fill="#addff5"/><path d="m259.980469 74.011719 42.769531-42.769531 44.664062 44.660156-42.773437 42.773437zm0 0" fill="#a8a8a8"/><path d="m328.453125 56.9375-42.769531 42.773438-25.699219-25.699219 44.660156 44.660156 42.773438-42.773437zm0 0" fill="#8c8c8c"/><path d="m174.863281 134.082031-45.414062 45.410157 66.640625 66.640624 112.148437-112.148437c3.238281-3.234375 3.238281-8.480469 0-11.714844l-54.921875-54.925781c-3.234375-3.234375-8.480468-3.234375-11.714844 0l-44.097656 44.09375zm0 0" fill="#d9d9d9"/><path d="m295.136719 109.160156-118.007813 118.011719 18.960938 18.960937 112.148437-112.148437c3.234375-3.234375 3.234375-8.484375 0-11.71875zm0 0" fill="#c2c2c2"/></svg>