<svg width="24" height="35" viewBox="0 0 24 35" fill="none" xmlns="http://www.w3.org/2000/svg">
<path d="M4.916 29.532H5.132C5.332 29.532 5.476 29.4693 5.564 29.344L6.876 27.44C6.95333 27.3387 7.036 27.2693 7.124 27.232C7.21467 27.192 7.32667 27.172 7.46 27.172H8.636L6.908 29.528C6.78533 29.6907 6.65333 29.808 6.512 29.88C6.61333 29.9173 6.70533 29.9693 6.788 30.036C6.87067 30.1027 6.948 30.1893 7.02 30.296L8.78 33H7.572C7.49467 33 7.428 32.9947 7.372 32.984C7.31867 32.9733 7.272 32.9573 7.232 32.936C7.192 32.9147 7.15733 32.8893 7.128 32.86C7.09867 32.828 7.07067 32.792 7.044 32.752L5.724 30.724C5.676 30.6493 5.61467 30.5973 5.54 30.568C5.468 30.536 5.36933 30.52 5.244 30.52H4.916V33H3.564V27.172H4.916V29.532ZM12.0044 30.784V33H10.6524V30.784L8.54044 27.172H9.73244C9.84977 27.172 9.94177 27.2 10.0084 27.256C10.0778 27.3093 10.1351 27.3787 10.1804 27.464L11.0044 29.16C11.0738 29.2933 11.1364 29.4187 11.1924 29.536C11.2484 29.6507 11.2978 29.764 11.3404 29.876C11.3804 29.7613 11.4258 29.6467 11.4764 29.532C11.5298 29.4147 11.5911 29.2907 11.6604 29.16L12.4764 27.464C12.4951 27.4293 12.5178 27.3947 12.5444 27.36C12.5711 27.3253 12.6018 27.2947 12.6364 27.268C12.6738 27.2387 12.7151 27.216 12.7604 27.2C12.8084 27.1813 12.8604 27.172 12.9164 27.172H14.1164L12.0044 30.784ZM18.1326 31.492C18.1646 31.492 18.1966 31.4987 18.2286 31.512C18.2606 31.5227 18.2913 31.5427 18.3206 31.572L18.8566 32.136C18.622 32.4427 18.3273 32.6747 17.9726 32.832C17.6206 32.9867 17.2033 33.064 16.7206 33.064C16.278 33.064 15.8806 32.9893 15.5286 32.84C15.1793 32.688 14.882 32.48 14.6366 32.216C14.394 31.9493 14.2073 31.6347 14.0766 31.272C13.946 30.9067 13.8806 30.5107 13.8806 30.084C13.8806 29.6493 13.9513 29.2507 14.0926 28.888C14.234 28.5227 14.4326 28.208 14.6886 27.944C14.9446 27.68 15.2513 27.4747 15.6086 27.328C15.966 27.1813 16.3593 27.108 16.7886 27.108C17.0073 27.108 17.2126 27.128 17.4046 27.168C17.5993 27.2053 17.7806 27.2587 17.9486 27.328C18.1166 27.3947 18.2713 27.476 18.4126 27.572C18.554 27.668 18.6793 27.772 18.7886 27.884L18.3326 28.496C18.3033 28.5333 18.2686 28.568 18.2286 28.6C18.1886 28.6293 18.1326 28.644 18.0606 28.644C18.0126 28.644 17.9673 28.6333 17.9246 28.612C17.882 28.5907 17.8366 28.5653 17.7886 28.536C17.7406 28.504 17.6873 28.4707 17.6286 28.436C17.5726 28.3987 17.5046 28.3653 17.4246 28.336C17.3473 28.304 17.2553 28.2773 17.1486 28.256C17.0446 28.2347 16.922 28.224 16.7806 28.224C16.5566 28.224 16.3513 28.2653 16.1646 28.348C15.9806 28.4307 15.8206 28.552 15.6846 28.712C15.5513 28.8693 15.4473 29.064 15.3726 29.296C15.3006 29.5253 15.2646 29.788 15.2646 30.084C15.2646 30.3827 15.3046 30.648 15.3846 30.88C15.4673 31.112 15.578 31.308 15.7166 31.468C15.858 31.6253 16.022 31.7453 16.2086 31.828C16.3953 31.9107 16.5953 31.952 16.8086 31.952C16.9313 31.952 17.0433 31.9467 17.1446 31.936C17.246 31.9227 17.3406 31.9027 17.4286 31.876C17.5166 31.8467 17.5993 31.8093 17.6766 31.764C17.754 31.716 17.8326 31.656 17.9126 31.584C17.9446 31.5573 17.9793 31.536 18.0166 31.52C18.054 31.5013 18.0926 31.492 18.1326 31.492Z" fill="#A7A7A7"/>
<path d="M17 21V19C17 17.9391 16.5786 16.9217 15.8284 16.1716C15.0783 15.4214 14.0609 15 13 15H5C3.93913 15 2.92172 15.4214 2.17157 16.1716C1.42143 16.9217 1 17.9391 1 19V21" stroke="#A7A7A7" stroke-width="2" stroke-linecap="round" stroke-linejoin="round"/>
<path d="M9 11C11.2091 11 13 9.20914 13 7C13 4.79086 11.2091 3 9 3C6.79086 3 5 4.79086 5 7C5 9.20914 6.79086 11 9 11Z" stroke="#A7A7A7" stroke-width="2" stroke-linecap="round" stroke-linejoin="round"/>
<path d="M23 21V19C22.9993 18.1137 22.7044 17.2528 22.1614 16.5523C21.6184 15.8519 20.8581 15.3516 20 15.13" stroke="#A7A7A7" stroke-width="2" stroke-linecap="round" stroke-linejoin="round"/>
<path d="M16 3.13C16.8604 3.35031 17.623 3.85071 18.1676 4.55232C18.7122 5.25392 19.0078 6.11683 19.0078 7.005C19.0078 7.89318 18.7122 8.75608 18.1676 9.45769C17.623 10.1593 16.8604 10.6597 16 10.88" stroke="#A7A7A7" stroke-width="2" stroke-linecap="round" stroke-linejoin="round"/>
</svg>
