<svg height="512" viewBox="0 0 512 512" width="512" xmlns="http://www.w3.org/2000/svg"><g id="Filled_outline" data-name="Filled outline"><path d="m400 160h16v16h-16z" fill="#feb784"/><path d="m256 160h16v16h-16z" fill="#feb784"/><path d="m464 329.88v166.12h-208v-105.88h-11.88l-.16.23-57.18 83.38a26.962 26.962 0 0 1 -48.82-22.71l66.26-138.41a47.988 47.988 0 0 1 38.95-27.08l27.23-2.48 25.6-2.32.72-.07a8 8 0 0 0 7.28-7.97v-56.69h64v57.22a8 8 0 0 0 6.69 7.89l1.31.22 26.41 4.4 28.17 4.7a39.995 39.995 0 0 1 33.42 39.45z" fill="#fec9a3"/><path d="m368 248.427v-32.427h-64v32.427a71.4 71.4 0 0 0 64 0z" fill="#feb784"/><path d="m137.955 451.025a26.962 26.962 0 0 0 48.823 22.7l18.36-26.641-10.038-115.428z" fill="#fec093"/><path d="m48 280h48v80h-48z" fill="#b281c7"/><path d="m96 304h120v32h-120z" fill="#a778bb"/><path d="m192 460v-20l-8-80v-72h-56l-8 32 16 40v100a28 28 0 0 0 28 28 28 28 0 0 0 28-28z" fill="#fec9a3"/><path d="m416 64h-24v32h8a16 16 0 0 1 16 16v88a48 48 0 0 0 48 48v-136a48 48 0 0 0 -48-48z" fill="#82462a"/><path d="m256 176h8v-48h-8a24 24 0 0 0 -24 24 24 24 0 0 0 24 24z" fill="#feb784"/><path d="m408 112v56a72 72 0 1 1 -144 0v-56a64 64 0 0 1 64-64h16a63.919 63.919 0 0 1 64 64z" fill="#fec9a3"/><path d="m408 112v56a72.041 72.041 0 0 1 -92 69.18 72.028 72.028 0 0 0 52-69.18v-80a71.786 71.786 0 0 0 -11.29-38.74 64.021 64.021 0 0 1 51.29 62.74z" fill="#fec093"/><path d="m424 104v32l-16-8-32-64s-9.63 8.03-24.21 18.49c-23.04 16.5-58.44 39.06-87.79 45.51-5.45 1.2-10.19.75-15.69 1.25l-.31-25.25a79.956 79.956 0 0 1 80-80h16a80 80 0 0 1 80 80z" fill="#95573a"/><path d="m424 104v32l-16-8-32-64s-9.63 8.03-24.21 18.49a72.077 72.077 0 0 0 -36.81-57.43 79.8 79.8 0 0 1 13.02-1.06h16a80 80 0 0 1 80 80z" fill="#8f4d2e"/><path d="m416 176h-8v-48h8a24 24 0 0 1 24 24 24 24 0 0 1 -24 24z" fill="#feb784"/><path d="m464 329.88v166.12h-197.01c65.61-30.08 141.92-87.91 180.24-198.68a39.974 39.974 0 0 1 16.77 32.56z" fill="#fec093"/><path d="m400 448h16v48h-16z" fill="#f7a468"/><path d="m96 304h16v32h-16z" fill="#9c70af"/><path d="m256 448h144v16h-144z" fill="#fec093"/><path d="m416 448h-160a62.09 62.09 0 0 1 0-80l14.4-84.95 25.6-2.32v47.27a40 40 0 0 0 80 0v-46.67l26.41 4.4 13.59 82.27a62.1 62.1 0 0 1 0 80z" fill="#d3669a"/><path d="m216 280h48v80h-48z" fill="#b281c7"/><path d="m416 448h-54.34c22.82-12.59 46.98-30.67 66.73-56.41a62.024 62.024 0 0 1 -12.39 56.41z" fill="#cc5e93"/><path d="m408.073 202.875a56.07 56.07 0 0 0 55.927 53.125 8 8 0 0 0 8-8v-136a56.056 56.056 0 0 0 -54.237-55.955 88.322 88.322 0 0 0 -73.763-40.045h-16a88.1 88.1 0 0 0 -88 88v20.305a31.989 31.989 0 0 0 16 59.695h1.6a79.368 79.368 0 0 0 38.4 53.258v35.414l-.116.012-24.76 2.294-.87.041a7.98 7.98 0 0 0 -6.254-3.019h-48a8 8 0 0 0 -8 8v13.7q-1.123 1.11-2.177 2.3h-13.823v-8a8 8 0 0 0 -8-8h-56a8 8 0 0 0 -7.761 6.06l-2.485 9.94h-13.754v-16a8 8 0 0 0 -8-8h-48a8 8 0 0 0 -8 8v80a8 8 0 0 0 8 8h48a8 8 0 0 0 8-8v-16h16.984l7.016 17.541v98.459a36 36 0 0 0 70.138 11.4l35.736-51.958a68.561 68.561 0 0 0 13.448 31.39l.678 45.288 16-.24-.6-39.88h144.6v40h16v-45.2a70.138 70.138 0 0 0 1.2-83.945c-.509-.754-1.049-1.5-1.647-2.262l-.779-4.786-10.72-64.388 17.167 2.869a32.043 32.043 0 0 1 26.779 31.632v166.08h16v-166.08a48.011 48.011 0 0 0 -40.121-47.411l-28.263-4.723-26.232-4.306-1.191-.223c-.061-.011-.131-.047-.193-.057v-35.943a79.566 79.566 0 0 0 32.073-34.382zm-320.073 149.125h-32v-64h32zm16-24v-16h9.754l-1.515 6.06a8 8 0 0 0 .333 4.911l2.012 5.029zm264-40.911v40.911a32 32 0 0 1 -64 0v-41.474a16.014 16.014 0 0 0 8-13.806v-28.42a79.7 79.7 0 0 0 48 0v28.9a15.962 15.962 0 0 0 8 13.889zm48-119.089v-32a16 16 0 0 1 0 32zm40-56v127.2a40.071 40.071 0 0 1 -32-39.2v-17.013a31.989 31.989 0 0 0 8-58.682v-20.305a87.8 87.8 0 0 0 -5.52-30.6 40.065 40.065 0 0 1 29.52 38.6zm-200-8a72.081 72.081 0 0 1 72-72h16a72.272 72.272 0 0 1 62 35.405c.1.232.223.458.35.68a71.835 71.835 0 0 1 9.65 35.915v16h-3.056l-29.789-59.578a8 8 0 0 0 -12.15-2.671c-.627.5-63.243 50.244-108.787 60.45q-3.225.737-6.218 1.174zm-16 48a16.019 16.019 0 0 1 16-16v32a16.019 16.019 0 0 1 -16-16zm32 16v-35.794c38.368-10.825 83.318-42.552 101.184-55.949l26.816 53.631v38.112a64 64 0 0 1 -128 0zm-48 120h32v64h-32zm-16 24v16h-16v-16zm-24 148a20 20 0 0 1 -40 0v-100a8 8 0 0 0 -.572-2.971l-15.039-37.6 5.857-23.429h41.754v64a7.828 7.828 0 0 0 .04.8l7.96 79.6zm16-19.537v-.463a7.828 7.828 0 0 0 -.04-.8l-7.96-79.6v-2.9l6.079-12.7h9.921v16a8 8 0 0 0 8 8h29.953a71.838 71.838 0 0 0 -9.7 19.8l-5.965 8.625zm222.42-36.207a53.686 53.686 0 0 1 -10.307 35.744h-152.945a53.233 53.233 0 0 1 -9.236-41.022l.118-.565c.241-1.154.49-2.346.762-3.406.1-.328.187-.656.269-.985l.028-.13c.037-.111.071-.222.1-.334a55.988 55.988 0 0 1 10.916-20.416 7.988 7.988 0 0 0 1.771-3.878l.2-1.269a8 8 0 0 0 7.9-8v-39.895l4.876-29.579 11.128-1.021v38.5a48 48 0 0 0 96 0v-37.22l11.37 1.866 11.614 69.76 1.12 6.88a8 8 0 0 0 1.822 3.92 27.824 27.824 0 0 1 2.059 2.673c.064.1.129.19.2.283a53.816 53.816 0 0 1 10.235 28.094z"/><path d="m312 140a12 12 0 1 0 -12 12 12.013 12.013 0 0 0 12-12z"/><path d="m372 152a12 12 0 1 0 -12-12 12.013 12.013 0 0 0 12 12z"/><path d="m312 192h14.891c13.9 0 27.092-3.228 37.14-9.09l-8.062-13.82c-7.528 4.391-18.127 6.91-29.078 6.91h-14.891z"/></g></svg>